<svg width="240" height="44" viewBox="0 0 240 44" fill="none" xmlns="http://www.w3.org/2000/svg">
<g filter="url(#filter0_di)">
<path d="M34.9705 14.2653C34.251 14.8484 33.6115 15.9442 33.052 17.5527C32.2326 19.885 23.4695 23.3331 23.3696 23.5543C22.7501 24.7808 21.9307 25.394 20.9115 25.394C20.8316 25.394 20.1721 25.2935 18.933 25.0924C17.694 24.9115 16.6848 24.821 15.9054 24.821C14.7263 24.821 13.6172 25.012 12.578 25.394C11.5388 25.776 10.7194 25.967 10.1199 25.967C10.06 25.967 10.02 25.9369 10 25.8766C10 25.8363 10.03 25.8062 10.0899 25.7861C11.5488 25.5046 20.8815 22.539 21.481 21.2321C22.2404 19.5633 22.6201 16.5675 22.6201 12.2446C22.6201 10.9176 22.5901 10.0531 22.5302 9.65094C22.3304 8.54511 21.8507 7.82128 21.0913 7.47948C21.0514 7.45937 21.0314 7.42921 21.0314 7.389C21.0314 7.34879 21.0514 7.31863 21.0913 7.29853C22.2304 6.77577 22.8 5.85088 22.8 4.52388C22.8 3.9408 22.7101 3.48841 22.5302 3.16671C22.3503 2.84502 22.1605 2.68417 21.9606 2.68417C21.6609 2.68417 21.3711 2.82491 21.0913 3.1064C21.0314 3.1064 20.9814 3.08629 20.9414 3.04608C20.9614 2.64396 21.2212 2.20162 21.7208 1.71907C22.3603 1.09578 23.1297 0.784138 24.029 0.784138C24.2688 0.784138 24.6985 0.884669 25.318 1.08573C25.9575 1.26668 26.4871 1.35716 26.9068 1.35716C27.5263 1.35716 28.1058 1.25663 28.6454 1.05557C28.7453 1.03546 29.2549 0.814297 30.1742 0.392068C30.2342 0.392068 30.2742 0.43228 30.2941 0.512705C30.1942 0.934934 30.1443 1.39738 30.1443 1.90003C30.1443 3.68947 30.7638 5.04664 32.0028 5.97152C31.8229 6.75566 31.733 7.41916 31.733 7.96203C31.733 10.616 32.8122 12.6769 34.9705 14.1447C34.9905 14.1648 35.0105 14.1849 35.0304 14.205C35.0105 14.2251 34.9905 14.2452 34.9705 14.2653ZM30.1443 14.0542C30.1443 12.4658 29.8645 10.9578 29.3049 9.53031C28.7653 8.08266 28.1558 7.31863 27.4763 7.23821C27.3764 7.23821 27.3464 7.198 27.3864 7.11757C27.8261 6.33343 28.0459 5.70009 28.0459 5.21754C28.0459 4.65457 27.7461 4.0916 27.1466 3.52863C26.607 3.02597 26.1174 2.77465 25.6777 2.77465C25.0582 2.77465 24.7485 3.32756 24.7485 4.4334C24.7485 5.94136 25.1981 6.81598 26.0974 7.05725C26.2373 7.05725 26.2573 7.10752 26.1574 7.20805C25.1382 8.21335 24.6286 9.97264 24.6286 12.4859C24.6286 13.1695 24.6585 14.0843 24.7185 15.2304C24.9783 14.7277 25.2381 14.2251 25.4979 13.7224C25.8576 13.079 26.1674 12.7573 26.4272 12.7573C26.9068 12.7573 27.5463 12.9383 28.3457 13.3002C29.2649 13.7023 29.7246 14.1346 29.7246 14.5971C29.7246 15.16 29.4648 16.0246 28.9452 17.1907C28.4256 18.3368 28.0659 18.9098 27.866 18.9098C27.4464 18.9098 27.2365 18.7992 27.2365 18.5781C27.2365 18.5379 27.4064 18.1458 27.7461 17.4019C28.0859 16.6579 28.2557 16.0145 28.2557 15.4717C28.2557 14.8886 27.946 14.5971 27.3264 14.5971C27.0866 14.5971 26.7769 15.1801 26.3972 16.3463C26.0175 17.4923 25.8276 18.2966 25.8276 18.759C25.8276 19.8045 26.2473 20.3273 27.0866 20.3273C27.6662 20.3273 28.3157 19.5633 29.0351 18.0352C29.7745 16.487 30.1443 15.16 30.1443 14.0542Z" fill="url(#paint0_linear)"/>
<path d="M38.2089 23.5543C38.2689 23.6146 38.2589 23.6649 38.1789 23.7051C37.9791 23.8056 37.8092 23.9263 37.6693 24.067C37.2896 24.4088 37.0598 24.8411 36.9799 25.3639C36.9599 25.4644 36.9099 25.4744 36.83 25.394C36.1905 24.7506 35.3911 24.4289 34.4319 24.4289C33.8123 24.4289 33.013 24.6199 32.0337 25.0019C31.0545 25.4041 30.415 25.6051 30.1152 25.6051C29.5357 25.6051 29.0161 25.2231 28.5565 24.4591C28.1768 23.7152 36.1005 20.7998 35.7208 20.0559C35.2212 19.2114 34.6517 18.7088 34.0122 18.5479C33.9522 18.5278 33.9222 18.4976 33.9222 18.4574C33.9422 18.4172 33.9822 18.3871 34.0421 18.367C34.8215 18.2664 35.501 17.6733 36.0806 16.5876C36.8599 15.0997 37.4994 14.1346 37.9991 13.6923C38.3588 13.3706 38.8384 13.0187 39.4379 12.6367C40.0574 12.2547 40.4471 12.0637 40.607 12.0637C40.7469 12.0637 41.0567 12.2748 41.5363 12.697C42.0359 13.1192 42.4156 13.5013 42.6754 13.8431C42.6754 13.1193 42.4456 12.6568 41.9859 12.4557C41.886 12.3954 41.876 12.3351 41.956 12.2748C42.4556 11.9129 42.7054 11.4705 42.7054 10.9478C42.7054 10.4853 42.5855 10.043 42.3457 9.62078C42.0459 9.09802 41.6262 8.83664 41.0866 8.83664C40.3272 8.83664 39.6478 9.11813 39.0482 9.6811C38.2688 10.425 37.7592 11.561 37.5194 13.0891C37.4994 13.1494 37.4695 13.1896 37.4295 13.2097C37.3895 13.2097 37.3596 13.1796 37.3396 13.1193C37.1197 12.2748 37.0098 11.6817 37.0098 11.3399C37.0098 10.6965 37.1797 10.0028 37.5194 9.25887C37.8592 8.49484 38.029 8.09272 38.029 8.05251C38.029 7.77102 37.8692 7.63028 37.5494 7.63028C37.2696 7.63028 37.0198 7.7107 36.8 7.87155C36.74 7.87155 36.7001 7.84139 36.6801 7.78107C37.0998 6.77577 37.9891 6.27311 39.348 6.27311C39.7677 6.27311 40.2873 6.33343 40.9068 6.45407C41.5263 6.5546 41.966 6.60486 42.2258 6.60486C42.9252 6.60486 43.7446 6.28317 44.6838 5.63977C44.7438 5.61966 44.7938 5.64982 44.8337 5.73025C44.5539 7.13768 44.414 7.95197 44.414 8.17314C44.414 10.2843 45.0535 11.6917 46.3326 12.3954C46.4125 12.4356 46.4225 12.4859 46.3625 12.5462C45.5232 13.4912 45.1035 14.9087 45.1035 16.7987C45.1035 18.8093 37.2696 22.5088 38.2089 23.5543ZM42.3756 18.8797C42.1358 19.141 41.8261 19.3924 41.4464 19.6336C41.0866 19.8749 40.8468 19.9955 40.7269 19.9955C40.607 19.9955 40.4871 19.9151 40.3672 19.7543C40.2673 19.5733 40.2173 19.4326 40.2173 19.332C40.2173 19.3924 40.5371 19.0103 41.1766 18.186C41.8161 17.3415 42.1358 16.6278 42.1358 16.0447C42.1358 15.9039 41.896 15.6225 41.4164 15.2002C40.9368 14.7579 40.627 14.5367 40.4871 14.5367C40.2073 14.5367 39.7877 14.9187 39.2281 15.6828C38.6086 16.5071 38.2988 17.1807 38.2988 17.7034C38.2988 18.4072 38.5886 19.1209 39.1681 19.8448C39.7477 20.5686 40.3972 20.9305 41.1166 20.9305C41.896 20.9305 42.3157 20.2469 42.3756 18.8797Z" fill="url(#paint1_linear)"/>
<path d="M59.0417 9.10808C59.1216 9.1684 59.1116 9.22871 59.0117 9.28903C58.3123 9.65094 57.7527 10.2139 57.333 10.9779C57.0532 11.5811 56.7635 12.1743 56.4637 12.7573C56.1639 13.3203 55.6943 13.6018 55.0548 13.6018C54.5352 13.6018 54.0456 13.3605 53.586 12.878C53.1863 12.4557 52.9864 12.134 52.9864 11.9129C52.9864 11.7118 53.1063 11.37 53.3461 10.8875C53.6459 10.3245 53.9557 9.91232 54.2754 9.65094C54.3354 9.63084 54.3853 9.661 54.4253 9.74142C54.1655 10.6462 54.0356 11.2494 54.0356 11.551C54.0356 11.752 54.2355 11.8526 54.6351 11.8526C54.755 11.8526 54.9249 11.561 55.1447 10.9779C55.3846 10.3949 55.5045 9.81179 55.5045 9.22871C55.5045 8.5451 55.3346 8.2033 54.9949 8.2033C54.6351 8.2033 54.0056 8.65569 53.1063 9.56047C52.227 10.4652 51.7874 11.169 51.7874 11.6716C51.7874 12.0134 52.0272 12.315 52.5068 12.5764C52.5867 12.6166 52.5967 12.6669 52.5368 12.7272C51.6974 13.4108 51.2778 14.7177 51.2778 16.6479C51.2778 18.5982 43.6437 22.4284 44.9827 23.7956C45.0426 23.876 45.0327 23.9263 44.9527 23.9464C44.7529 24.0469 44.573 24.1575 44.4131 24.2781C44.0534 24.5596 43.8436 24.8612 43.7836 25.1829C43.7636 25.2834 43.7237 25.3035 43.6637 25.2432C42.8843 24.8009 42.2148 24.5797 41.6553 24.5797C41.0358 24.5797 40.3463 24.7707 39.5869 25.1527C38.8275 25.5549 38.3279 25.7559 38.0881 25.7559C38.0281 25.7559 37.9981 25.7358 37.9981 25.6956C37.9981 25.6353 38.0181 25.5951 38.0581 25.575C39.7368 24.6099 48.8796 20.1564 48.8796 16.5574C48.8796 14.6071 48.4 13.3505 47.4408 12.7875C47.3608 12.7473 47.3508 12.697 47.4108 12.6367C48.39 11.8928 48.8796 10.8171 48.8796 9.40967C48.8796 8.1832 48.6198 7.56996 48.1002 7.56996C47.8604 7.56996 47.5906 7.69059 47.2909 7.93187C47.2309 7.93187 47.181 7.90171 47.141 7.84139C47.5007 6.63502 48.1202 6.03184 48.9995 6.03184C49.3593 6.03184 49.699 6.10221 50.0187 6.24295C50.3585 6.3837 50.5983 6.45407 50.7382 6.45407C50.958 6.45407 51.1978 6.33343 51.4576 6.09216C51.7374 5.85088 51.9372 5.5895 52.0571 5.30802C52.1571 5.16728 52.217 5.16728 52.237 5.30802C52.257 5.40855 52.267 5.51913 52.267 5.63977C52.267 6.00168 52.0372 6.60486 51.5775 7.44932C51.1179 8.27367 50.8781 8.98744 50.8581 9.59062C52.0771 8.58532 53.0863 7.14773 53.8857 5.27786C53.9257 5.19744 53.9757 5.18738 54.0356 5.2477C54.5352 5.83078 55.1248 6.12232 55.8042 6.12232C56.3238 6.12232 56.8534 5.92126 57.393 5.51913C57.4929 5.43871 57.5429 5.45881 57.5429 5.57945C57.5629 6.0821 57.6228 6.54455 57.7227 6.96677C57.9825 7.97208 58.4222 8.68585 59.0417 9.10808Z" fill="url(#paint2_linear)"/>
<path d="M70.0487 9.10808C70.1287 9.1684 70.1187 9.22871 70.0187 9.28903C69.3193 9.65094 68.7597 10.2139 68.3401 10.9779C68.0603 11.5811 67.7705 12.1743 67.4707 12.7573C67.171 13.3203 66.7013 13.6018 66.0618 13.6018C65.5422 13.6018 65.0526 13.3605 64.593 12.878C64.1933 12.4557 63.9935 12.134 63.9935 11.9129C63.9935 11.7118 64.1134 11.37 64.3532 10.8875C64.6529 10.3245 64.9627 9.91232 65.2824 9.65094C65.3424 9.63084 65.3924 9.661 65.4323 9.74142C65.1725 10.6462 65.0426 11.2494 65.0426 11.551C65.0426 11.752 65.2425 11.8526 65.6422 11.8526C65.7621 11.8526 65.9319 11.561 66.1518 10.9779C66.3916 10.3949 66.5115 9.81179 66.5115 9.22871C66.5115 8.5451 66.3416 8.2033 66.0019 8.2033C65.6422 8.2033 65.0127 8.65569 64.1134 9.56047C63.234 10.4652 62.7944 11.169 62.7944 11.6716C62.7944 12.0134 63.0342 12.315 63.5138 12.5764C63.5938 12.6166 63.6038 12.6669 63.5438 12.7272C62.7045 13.4108 62.2848 14.7177 62.2848 16.6479C62.2848 18.5982 54.6508 22.4284 55.9897 23.7956C56.0497 23.876 56.0397 23.9263 55.9597 23.9464C55.7599 24.0469 55.58 24.1575 55.4202 24.2781C55.0604 24.5596 54.8506 24.8612 54.7907 25.1829C54.7707 25.2834 54.7307 25.3035 54.6707 25.2432C53.8914 24.8009 53.2219 24.5797 52.6623 24.5797C52.0428 24.5797 51.3533 24.7707 50.5939 25.1527C49.8345 25.5549 49.3349 25.7559 49.0951 25.7559C49.0351 25.7559 49.0052 25.7358 49.0052 25.6956C49.0052 25.6353 49.0252 25.5951 49.0651 25.575C50.7438 24.6099 59.8867 20.1564 59.8867 16.5574C59.8867 14.6071 59.407 13.3505 58.4478 12.7875C58.3678 12.7473 58.3579 12.697 58.4178 12.6367C59.397 11.8928 59.8867 10.8171 59.8867 9.40967C59.8867 8.1832 59.6269 7.56996 59.1073 7.56996C58.8675 7.56996 58.5977 7.69059 58.2979 7.93187C58.2379 7.93187 58.188 7.90171 58.148 7.84139C58.5077 6.63502 59.1272 6.03184 60.0066 6.03184C60.3663 6.03184 60.706 6.10221 61.0258 6.24295C61.3655 6.3837 61.6053 6.45407 61.7452 6.45407C61.965 6.45407 62.2048 6.33343 62.4646 6.09216C62.7444 5.85088 62.9443 5.5895 63.0642 5.30802C63.1641 5.16728 63.2241 5.16728 63.244 5.30802C63.264 5.40855 63.274 5.51913 63.274 5.63977C63.274 6.00168 63.0442 6.60486 62.5846 7.44932C62.1249 8.27367 61.8851 8.98744 61.8651 9.59062C63.0842 8.58532 64.0934 7.14773 64.8927 5.27786C64.9327 5.19744 64.9827 5.18738 65.0426 5.2477C65.5422 5.83078 66.1318 6.12232 66.8113 6.12232C67.3308 6.12232 67.8604 5.92126 68.4 5.51913C68.4999 5.43871 68.5499 5.45881 68.5499 5.57945C68.5699 6.0821 68.6298 6.54455 68.7298 6.96677C68.9895 7.97208 69.4292 8.68585 70.0487 9.10808Z" fill="url(#paint3_linear)"/>
<path d="M81.7752 18.005C80.9758 18.6082 80.3463 19.3622 79.8867 20.267C79.6069 20.8903 71.0136 23.695 70.7138 24.3384C70.3941 24.8813 69.9245 25.1527 69.3049 25.1527C68.8853 25.1527 68.3257 25.0623 67.6263 24.8813C66.9268 24.7004 66.3473 24.6099 65.8876 24.6099C64.9084 24.6099 63.8592 24.8411 62.7401 25.3035C62.84 24.1374 62.89 23.5342 62.89 23.494C62.89 22.8104 71.0336 19.7342 70.7138 18.6082C70.2342 16.8992 69.5547 15.6627 68.6754 14.8986C69.4948 14.3357 70.2942 13.3505 71.0735 11.943C71.8729 10.5155 72.2726 9.3393 72.2726 8.41442C72.2726 7.93187 72.1427 7.6906 71.8829 7.6906C71.5432 7.6906 71.2734 7.81123 71.0735 8.05251C71.2534 7.50964 71.5931 7.03715 72.0928 6.63502C72.7123 6.15248 73.4417 5.9112 74.281 5.9112C74.8406 5.9112 75.3502 5.99163 75.8098 6.15248C76.2695 6.29322 76.5892 6.36359 76.7691 6.36359C77.5285 6.36359 78.3079 6.16253 79.1073 5.76041C78.9674 6.84614 78.8974 7.44932 78.8974 7.56996C78.8974 8.65569 79.3471 9.52025 80.2464 10.1636C79.6868 10.7467 79.417 11.3198 79.437 11.8827C78.6776 12.0235 77.9782 12.2044 77.3387 12.4256C75.7999 12.9886 74.6508 13.7224 73.8913 14.6272C73.8314 14.3859 73.7614 14.1648 73.6815 13.9637C73.4617 13.5013 73.2019 13.1896 72.9021 13.0288C72.7622 13.4912 72.6923 13.9235 72.6923 14.3256C72.6923 15.2304 72.9621 16.4066 73.5016 17.8542C74.1012 19.4828 74.7107 20.2971 75.3302 20.2971C76.0097 20.2971 76.6992 19.895 77.3986 19.0908C78.118 18.2664 78.4778 17.4622 78.4778 16.678C78.4778 16.3362 78.3978 15.8135 78.238 15.1098C77.3586 15.1902 76.5892 15.5018 75.9298 16.0447C75.2903 16.5876 75.0005 16.859 75.0604 16.859C74.9405 16.859 74.8306 16.7786 74.7307 16.6177C74.6308 16.4368 74.5808 16.286 74.5808 16.1653C74.5808 15.8436 75.0904 15.351 76.1096 14.6875C77.2687 13.9637 78.4977 13.451 79.7967 13.1494C79.9966 13.1092 80.0965 13.2399 80.0965 13.5415C80.0965 15.4918 80.6561 16.9796 81.7752 18.005ZM76.889 9.77158C76.889 9.30914 76.7491 8.91707 76.4693 8.59537C76.2095 8.25357 75.9098 8.08266 75.57 8.08266C74.9505 8.08266 74.301 8.96733 73.6216 10.7367L74.4009 11.9129C75.3402 11.6314 75.9897 11.3499 76.3494 11.0684C76.7091 10.7668 76.889 10.3346 76.889 9.77158Z" fill="url(#paint4_linear)"/>
<path d="M107.365 4.4334C106.925 4.73499 106.545 5.02653 106.226 5.30802C105.466 6.01173 105.046 6.65513 104.967 7.23821C105.226 7.13768 105.436 7.08741 105.596 7.08741C106.156 7.08741 106.435 7.3689 106.435 7.93187C106.435 8.25357 106.325 8.53505 106.106 8.77633C105.866 9.07792 105.516 9.22871 105.056 9.22871C104.577 9.22871 104.187 9.06787 103.887 8.74617C103.608 8.42447 103.468 8.04245 103.468 7.60012C103.468 7.13768 103.618 6.5546 103.917 5.85088C104.237 5.12706 104.397 4.6043 104.397 4.2826C104.397 3.51857 103.777 3.13656 102.538 3.13656C102.019 3.13656 101.639 3.23709 101.399 3.43815C101.16 3.63921 100.95 3.96091 100.77 4.40324C100.59 4.84558 100.5 5.2477 100.5 5.60961C100.5 6.45407 100.78 7.18794 101.339 7.81123C101.399 7.87155 101.389 7.92182 101.309 7.96203C100.37 8.40436 99.5208 9.41972 98.7614 11.0081C97.9021 12.878 97.4724 15.0092 97.4724 17.4019C97.4724 18.2061 97.952 23.5845 98.3117 24.248C98.6914 25.012 99.191 25.394 99.8106 25.394C100.45 25.394 101.12 24.7406 101.819 23.4337C102.478 22.1871 102.508 16.3966 102.508 15.351C102.508 13.8833 102.199 13.1494 101.579 13.1494C100.92 13.1494 100.41 13.5113 100.05 14.2351C99.7506 14.8383 99.6007 15.5823 99.6007 16.4669C99.6007 17.1103 99.6407 17.6833 99.7206 18.186C99.8006 18.6685 100.14 23.5543 100.14 23.5543C100.14 23.7554 99.9305 23.8559 99.5108 23.8559C99.3909 23.8559 98.9113 18.8093 98.6715 18.005C98.4117 17.1003 98.2818 16.2558 98.2818 15.4717C98.2818 14.406 98.4416 13.3605 98.7614 12.3351C99.281 12.1341 99.7606 11.933 100.2 11.7319C101.259 11.2293 102.059 10.7568 102.598 10.3144C102.658 10.2541 102.708 10.2642 102.748 10.3446C103.068 10.9277 103.418 11.4705 103.797 11.9732C104.717 13.2198 105.746 14.1849 106.885 14.8685C106.945 14.9087 106.945 14.959 106.885 15.0193C106.126 15.5621 105.476 16.5876 104.937 18.0955C104.537 19.2818 104.427 25.1125 104.007 26.2988C103.488 27.4448 102.798 28.0179 101.939 28.0179C101.639 28.0179 101.15 27.8972 100.47 27.656C99.7906 27.4147 99.291 27.294 98.9712 27.294C97.7122 27.294 96.3932 27.4951 95.0143 27.8972C94.9344 27.9374 94.8944 27.9073 94.8944 27.8068C94.7945 27.3041 94.6546 26.8618 94.4747 26.4797C94.0351 25.575 93.4056 25.0321 92.5862 24.8511C92.5063 24.831 92.4963 24.7808 92.5562 24.7004C95.6338 21.222 96.8729 12.9584 96.8729 9.19855C96.8729 8.29378 96.683 7.62022 96.3033 7.17789C96.2433 7.09746 96.2534 7.0472 96.3333 7.02709C97.972 6.54454 98.7914 5.5694 98.7914 4.10165C98.7914 3.73974 98.6615 3.55878 98.4017 3.55878C97.8821 3.55878 97.1926 3.85032 96.3333 4.4334C95.1342 5.25775 94.5347 6.29322 94.5347 7.5398C94.5347 7.76097 94.5547 7.98213 94.5946 8.2033C94.5747 8.24351 94.5247 8.26362 94.4448 8.26362C93.9851 7.76097 93.7553 7.20805 93.7553 6.60486C93.7553 6.26306 93.8952 5.7403 94.175 5.03659C94.4548 4.33287 94.5946 3.88048 94.5946 3.67942C94.5946 3.13656 94.3348 2.86512 93.8152 2.86512C93.0758 2.86512 92.5462 3.08629 92.2265 3.52863C92.1665 3.54873 92.1166 3.51857 92.0766 3.43815C92.876 1.68891 94.3848 0.814297 96.6031 0.814297C97.1826 0.814297 97.922 0.924881 98.8213 1.14605C99.7206 1.34711 100.44 1.44764 100.98 1.44764C102.079 1.44764 103.298 1.02541 104.637 0.180955C104.737 0.120636 104.787 0.150795 104.787 0.271433C104.847 0.834404 104.967 1.35716 105.146 1.83971C105.586 2.96565 106.315 3.7699 107.335 4.25245C107.475 4.29266 107.485 4.35298 107.365 4.4334Z" fill="url(#paint5_linear)"/>
<path d="M120.061 16.2256C120.101 16.2458 120.091 16.286 120.031 16.3463C119.291 17.4521 118.482 18.2262 118.202 20.1765C117.802 23.0516 117.563 24.63 117.483 24.9115C117.043 26.6004 116.194 27.9073 114.935 28.8322C114.875 28.8322 114.835 28.792 114.815 28.7115C115.814 27.3242 116.314 25.6453 116.314 23.6749C116.314 22.4284 116.074 21.8051 115.594 21.8051C115.474 21.8051 115.045 21.986 114.305 22.3479C113.566 22.7098 113.066 22.8908 112.806 22.8908C112.746 22.8908 112.706 22.8707 112.686 22.8305C112.686 22.7702 112.716 22.73 112.776 22.7098C113.556 22.3479 114.245 21.5839 114.845 20.4177C115.624 18.8897 116.314 17.7738 116.314 15.5621C116.314 13.9335 116.064 12.3452 115.564 10.797C115.145 9.42978 114.805 8.74617 114.545 8.74617C114.325 8.74617 113.806 9.34935 112.986 10.5557C112.187 11.742 111.787 12.5362 111.787 12.9383C111.787 13.5616 112.147 14.6373 112.866 16.1653C113.606 17.6733 113.975 18.4273 113.975 18.4273C113.975 18.6082 114.205 23.4236 114.065 23.5845C113.945 23.7252 113.826 23.7956 113.706 23.7956C113.606 23.7956 112.996 18.8394 112.477 18.2162C111.977 17.5728 111.567 16.9696 111.248 16.4066C111.248 18.8394 111.597 19.8648 112.896 20.9908C112.956 21.0511 112.946 21.1014 112.866 21.1416C112.726 21.222 112.597 21.3225 112.477 21.4432C112.217 21.6844 112.067 21.9659 112.027 22.2876C112.027 22.3881 111.977 22.4083 111.877 22.3479C111.477 22.1067 110.978 21.986 110.378 21.986C109.519 21.986 108.67 22.2172 107.83 22.6797C107.011 23.1622 107.121 28.802 106.961 28.802C106.901 28.802 106.861 28.7819 106.841 28.7417C106.841 28.6814 106.861 28.6412 106.901 28.621C108.52 27.656 109.029 20.267 109.029 15.7431C109.029 14.1547 108.63 13.069 107.83 12.4859C107.77 12.4256 107.77 12.3753 107.83 12.3351C108.55 11.9129 108.999 11.0081 109.179 9.62078C109.239 9.15834 109.269 8.06256 109.269 6.33343C109.269 5.16728 109.259 4.45351 109.239 4.19213C109.139 3.32756 108.889 2.89528 108.49 2.89528C108.23 2.89528 107.94 3.03602 107.62 3.31751C107.52 3.37783 107.471 3.35772 107.471 3.25719C107.53 2.81486 107.72 2.40268 108.04 2.02067C108.46 1.49791 108.969 1.23653 109.569 1.23653C110.069 1.23653 110.498 1.29685 110.858 1.41748C111.238 1.51801 111.507 1.56828 111.667 1.56828C111.947 1.56828 112.307 1.36722 112.746 0.965094C112.826 0.904776 112.876 0.914829 112.896 0.995253C112.956 1.23653 112.836 1.61854 112.537 2.1413C112.077 2.88523 111.747 3.56884 111.547 4.19213C111.168 5.33818 110.978 6.71545 110.978 8.32394C110.978 9.38956 110.968 10.0531 110.948 10.3144C112.267 8.66574 113.146 7.20805 113.586 5.94136C113.626 5.84083 113.676 5.82072 113.736 5.88104C114.135 6.12232 114.595 6.24295 115.115 6.24295C115.694 6.24295 116.274 6.07205 116.853 5.73025C116.953 5.66993 117.003 5.70009 117.003 5.82072C117.083 7.0472 117.233 8.23346 117.453 9.37951C118.012 12.1139 118.882 14.396 120.061 16.2256Z" fill="url(#paint6_linear)"/>
<path d="M133.034 18.005C132.235 18.6082 131.905 24.0067 131.445 24.9115C131.165 25.5348 130.876 26.1681 130.576 26.8115C130.256 27.3544 129.787 27.6258 129.167 27.6258C128.747 27.6258 128.188 27.5353 127.488 27.3544C126.789 27.1734 126.209 27.0829 125.75 27.0829C124.77 27.0829 123.721 27.3142 122.602 27.7766C122.702 26.6104 122.752 26.0073 122.752 25.967C122.752 25.2834 122.292 19.7342 121.973 18.6082C121.493 16.8992 120.814 15.6627 119.934 14.8986C120.754 14.3357 121.553 13.3505 122.332 11.943C123.132 10.5155 123.531 9.3393 123.531 8.41442C123.531 7.93187 123.402 7.6906 123.142 7.6906C122.802 7.6906 122.532 7.81123 122.332 8.05251C122.512 7.50964 122.852 7.03715 123.352 6.63502C123.971 6.15248 124.7 5.9112 125.54 5.9112C126.099 5.9112 126.609 5.99163 127.069 6.15248C127.528 6.29322 127.848 6.36359 128.028 6.36359C128.787 6.36359 129.567 6.16253 130.366 5.76041C130.226 6.84614 130.156 7.44932 130.156 7.56996C130.156 8.65569 130.606 9.52025 131.505 10.1636C130.946 10.7467 130.676 11.3198 130.696 11.8827C129.936 12.0235 129.237 12.2044 128.597 12.4256C127.059 12.9886 125.91 13.7224 125.15 14.6272C125.09 14.3859 125.02 14.1648 124.94 13.9637C124.72 13.5013 124.461 13.1896 124.161 13.0288C124.021 13.4912 123.951 13.9235 123.951 14.3256C123.951 15.2304 124.221 16.4066 124.76 17.8542C125.36 19.4828 126.269 24.9416 126.889 24.9416C127.568 24.9416 128.258 24.5395 128.957 23.7353C129.677 22.9109 129.737 17.4622 129.737 16.678C129.737 16.3362 129.657 15.8135 129.497 15.1098C128.617 15.1902 127.848 15.5018 127.189 16.0447C126.549 16.5876 126.259 16.859 126.319 16.859C126.199 16.859 126.089 16.7786 125.989 16.6177C125.89 16.4368 125.84 16.286 125.84 16.1653C125.84 15.8436 126.349 15.351 127.368 14.6875C128.528 13.9637 129.757 13.451 131.056 13.1494C131.255 13.1092 131.355 13.2399 131.355 13.5415C131.355 15.4918 131.915 16.9796 133.034 18.005ZM128.148 9.77158C128.148 9.30914 128.008 8.91707 127.728 8.59537C127.468 8.25357 127.169 8.08266 126.829 8.08266C126.209 8.08266 125.56 8.96733 124.88 10.7367L125.66 11.9129C126.599 11.6314 127.249 11.3499 127.608 11.0684C127.968 10.7668 128.148 10.3346 128.148 9.77158Z" fill="url(#paint7_linear)"/>
<path d="M157.754 16.7685C157.195 17.0299 156.785 17.422 156.525 17.9447C156.105 18.749 155.896 20.0257 155.896 21.7749C155.896 23.866 155.566 25.7459 154.906 27.4147C154.207 29.184 153.238 30.4306 151.999 31.1545C151.959 31.1343 151.929 31.0841 151.909 31.0037C153.208 29.2745 153.857 27.2941 153.857 25.0623C153.857 24.1173 153.747 23.4739 153.527 23.1321C153.348 22.8506 153.018 22.7099 152.538 22.7099C152.238 22.7099 151.669 22.8707 150.83 23.1924C150.01 23.5141 149.431 23.675 149.091 23.675C149.031 23.675 149.001 23.6448 149.001 23.5845C149.001 23.5242 149.031 23.494 149.091 23.494C149.97 23.3935 150.8 22.8908 151.579 21.9861C152.418 21.0009 152.838 19.9051 152.838 18.6987C152.838 17.6331 152.218 16.5473 150.979 15.4415C150.46 14.959 149.531 14.1648 148.192 13.0589C147.872 14.587 147.712 15.8135 147.712 16.7384C147.712 18.7892 148.222 20.277 149.241 21.2019C149.261 21.222 149.281 21.2421 149.301 21.2622C149.281 21.2823 149.261 21.3024 149.241 21.3226C149.081 21.4432 148.941 21.5839 148.821 21.7448C148.541 22.1067 148.391 22.4887 148.371 22.8908C148.371 22.9713 148.332 23.0014 148.252 22.9813C147.592 22.6797 147.003 22.5289 146.483 22.5289C145.544 22.5289 144.674 22.7501 143.875 23.1924C143.096 23.6348 142.536 23.8559 142.196 23.8559C142.136 23.8559 142.096 23.8258 142.076 23.7654C142.076 23.7252 142.106 23.6951 142.166 23.675C143.825 23.2125 144.654 22.0162 144.654 20.086C144.654 19.2416 144.534 18.5278 144.295 17.9447C144.215 17.7437 143.995 17.3717 143.635 16.8288C143.615 16.8087 143.625 16.7685 143.665 16.7082C144.484 15.7632 145.424 14.1748 146.483 11.943C146.163 11.8023 145.674 11.561 145.014 11.2192C144.754 11.0785 144.485 10.616 144.205 9.8319C143.965 9.10808 143.845 8.55516 143.845 8.17314C143.845 7.87155 144.115 7.49959 144.654 7.05725C145.214 6.61492 145.624 6.39375 145.883 6.39375C146.103 6.39375 146.323 6.64508 146.543 7.14773C146.783 7.63028 146.903 8.02235 146.903 8.32394C146.903 8.64564 146.753 8.80648 146.453 8.80648C146.433 8.80648 146.343 8.62553 146.183 8.26362C146.043 7.90171 145.923 7.72075 145.823 7.72075C145.724 7.72075 145.584 7.79112 145.404 7.93187C145.244 8.0525 145.164 8.16309 145.164 8.26362C145.164 8.92712 145.284 9.3393 145.524 9.50015C145.903 9.76153 146.443 10.033 147.142 10.3144C148.102 7.94192 148.581 5.80062 148.581 3.89054C148.581 3.08629 148.441 2.68417 148.162 2.68417C147.882 2.68417 147.662 2.88523 147.502 3.28735C147.482 3.34767 147.452 3.36778 147.412 3.34767C147.352 3.34767 147.322 3.31751 147.322 3.25719C147.302 2.75454 147.492 2.23178 147.892 1.68891C148.312 1.12594 148.801 0.844457 149.361 0.844457C149.76 0.844457 150.18 0.944988 150.62 1.14605C151.079 1.327 151.529 1.41748 151.969 1.41748C152.928 1.41748 153.547 0.975147 153.827 0.0904764C153.847 0.0301588 153.877 0 153.917 0C153.957 0 153.987 0.0301588 154.007 0.0904764C154.067 0.33175 154.097 0.552918 154.097 0.753979C154.097 1.07568 153.897 1.52807 153.497 2.11114C153.098 2.69422 152.898 3.37783 152.898 4.16197C152.898 5.20749 153.078 5.95141 153.438 6.39375C153.797 6.83608 154.397 7.10752 155.236 7.20805C155.416 7.20805 155.436 7.25831 155.296 7.35884C154.816 7.70065 154.567 7.89166 154.547 7.93187C154.287 8.23346 154.157 8.73611 154.157 9.43983C154.157 10.7869 154.467 12.1441 155.086 13.5113C155.786 15.0796 156.675 16.105 157.754 16.5876C157.794 16.6077 157.814 16.6378 157.814 16.678C157.814 16.7182 157.794 16.7484 157.754 16.7685ZM152.508 13.2097C152.348 11.9028 152.179 10.7367 151.999 9.71126C151.639 7.66044 151.239 6.05195 150.8 4.88579C150 6.77577 149.291 8.8668 148.671 11.1589C149.99 11.7822 151.269 12.4658 152.508 13.2097Z" fill="url(#paint8_linear)"/>
<path d="M170.538 15.2304C169.799 16.296 169.279 17.8844 168.979 19.9955C168.52 23.3332 168.28 25.0422 168.26 25.1226C167.82 26.9523 167.021 28.2491 165.862 29.0131C165.802 29.0534 165.752 29.0534 165.712 29.0131C165.672 28.9729 165.672 28.9227 165.712 28.8624C166.591 27.5152 167.031 26.0877 167.031 24.5797C167.031 23.9162 166.911 23.3935 166.671 23.0115C166.431 22.6295 166.162 22.4485 165.862 22.4686C165.562 22.4887 165.162 22.6194 164.663 22.8607C164.163 23.1221 163.843 23.2728 163.704 23.3131C163.644 23.3332 163.594 23.3131 163.554 23.2527C163.534 23.1924 163.554 23.1522 163.614 23.1321C164.353 22.6496 164.993 21.8152 165.532 20.6289C166.192 19.141 166.521 17.3717 166.521 15.3209C166.521 14.3558 166.401 13.3304 166.162 12.2446C165.842 10.7367 165.352 9.61073 164.693 8.8668C164.193 9.26893 163.634 9.87211 163.014 10.6764C162.395 11.4605 162.085 11.9531 162.085 12.1542C162.085 12.9383 162.315 13.8129 162.774 14.778C163.074 15.4616 163.484 16.1854 164.003 16.9495C164.463 17.613 164.693 17.9447 164.693 17.9447C164.693 18.0654 164.603 18.2162 164.423 18.3971C164.263 18.5781 164.133 18.6685 164.033 18.6685C163.913 18.6685 163.574 18.4273 163.014 17.9447C162.355 17.3616 161.845 16.7585 161.485 16.1352C161.405 18.5077 162.025 20.4077 163.344 21.8353C163.404 21.8956 163.394 21.9458 163.314 21.9861C163.174 22.0665 163.044 22.157 162.924 22.2575C162.644 22.4988 162.465 22.7802 162.385 23.1019C162.365 23.2025 162.315 23.2125 162.235 23.1321C161.715 22.8104 161.225 22.6496 160.766 22.6496C160.246 22.6496 159.567 22.8305 158.727 23.1924C157.888 23.5744 157.349 23.7654 157.109 23.7654C157.049 23.7654 157.019 23.7453 157.019 23.7051C156.999 23.6448 157.019 23.6046 157.079 23.5845C158.697 22.7601 159.507 20.3273 159.507 16.286C159.507 15.5621 159.377 14.8484 159.117 14.1447C158.837 13.3203 158.438 12.7272 157.918 12.3653C157.858 12.2848 157.868 12.2346 157.948 12.2145C158.987 11.6314 159.507 10.606 159.507 9.13824C159.507 8.13293 159.237 7.63028 158.697 7.63028C158.398 7.63028 158.078 7.78107 157.738 8.08266C157.678 8.08266 157.628 8.0525 157.588 7.99219C157.688 7.56996 157.898 7.15778 158.218 6.75566C158.538 6.33343 158.877 6.12232 159.237 6.12232C159.517 6.12232 159.797 6.17258 160.076 6.27311C160.356 6.37364 160.586 6.42391 160.766 6.42391C161.225 6.42391 161.725 6.17258 162.265 5.66993C162.365 5.5895 162.415 5.60961 162.415 5.73025C162.435 6.09216 162.205 6.67524 161.725 7.47948C161.265 8.28373 161.036 9.23877 161.036 10.3446C161.036 10.5859 161.365 10.1636 162.025 9.07792C162.744 7.91176 163.294 6.78582 163.674 5.70009C163.694 5.61966 163.744 5.59956 163.823 5.63977C164.523 6.04189 165.212 6.24295 165.892 6.24295C166.292 6.24295 166.651 6.16253 166.971 6.00168C167.051 5.96147 167.091 5.99163 167.091 6.09216C167.211 7.25831 167.401 8.3541 167.66 9.37951C168.3 11.8526 169.259 13.7626 170.538 15.1098C170.578 15.15 170.578 15.1902 170.538 15.2304Z" fill="url(#paint9_linear)"/>
<path d="M182.9 21.3829C182.96 21.4432 182.95 21.4935 182.87 21.5337C182.67 21.6342 198.747 27.0628 198.607 27.2036C198.227 27.5454 197.997 27.9777 197.918 28.5004C197.898 28.6009 197.848 28.611 197.768 28.5306C197.128 27.8872 196.329 27.5655 195.37 27.5655C194.75 27.5655 193.951 27.7565 192.971 28.1385C191.992 28.5406 191.353 28.7417 191.053 28.7417C190.473 28.7417 189.954 28.3597 189.494 27.5956C189.114 26.8517 172.488 20.7998 172.108 20.0559C171.609 19.2114 171.039 18.7088 170.4 18.5479C170.34 18.5278 170.31 18.4976 170.31 18.4574C170.33 18.4172 170.37 18.3871 170.43 18.367C171.209 18.2664 171.889 17.6733 172.468 16.5876C173.248 15.0997 173.887 14.1346 174.387 13.6923C174.746 13.3706 175.226 13.0187 175.826 12.6367C176.445 12.2547 176.835 12.0637 176.995 12.0637C177.135 12.0637 177.444 12.2748 177.924 12.697C178.424 13.1192 178.803 13.5013 179.063 13.8431C179.063 13.1193 178.833 12.6568 178.374 12.4557C178.274 12.3954 178.264 12.3351 178.344 12.2748C178.843 11.9129 179.093 11.4705 179.093 10.9478C179.093 10.4853 178.973 10.043 178.733 9.62078C178.434 9.09802 178.014 8.83664 177.474 8.83664C176.715 8.83664 176.035 9.11813 175.436 9.6811C174.656 10.425 174.147 11.561 173.907 13.0891C173.887 13.1494 173.857 13.1896 173.817 13.2097C173.777 13.2097 173.747 13.1796 173.727 13.1193C173.507 12.2748 173.397 11.6817 173.397 11.3399C173.397 10.6965 173.567 10.0028 173.907 9.25887C174.247 8.49484 174.417 8.09272 174.417 8.05251C174.417 7.77102 174.257 7.63028 173.937 7.63028C173.657 7.63028 173.407 7.7107 173.188 7.87155C173.128 7.87155 173.088 7.84139 173.068 7.78107C173.487 6.77577 174.377 6.27311 175.736 6.27311C176.155 6.27311 176.675 6.33343 177.294 6.45407C177.914 6.5546 178.354 6.60486 178.613 6.60486C179.313 6.60486 180.132 6.28317 181.071 5.63977C181.131 5.61966 181.181 5.64982 181.221 5.73025C180.942 7.13768 180.802 7.95197 180.802 8.17314C180.802 10.2843 181.441 11.6917 182.72 12.3954C182.8 12.4356 182.81 12.4859 182.75 12.5462C181.911 13.4912 181.491 14.9087 181.491 16.7987C181.491 18.8093 181.961 20.3374 182.9 21.3829ZM178.763 18.8797C178.523 19.141 178.214 19.3924 177.834 19.6336C177.474 19.8749 177.234 19.9955 177.115 19.9955C176.995 19.9955 176.875 19.9151 176.755 19.7543C176.655 19.5733 176.605 19.4326 176.605 19.332C176.605 19.3924 176.925 19.0103 177.564 18.186C178.204 17.3415 178.523 16.6278 178.523 16.0447C178.523 15.9039 178.284 15.6225 177.804 15.2002C177.324 14.7579 177.015 14.5367 176.875 14.5367C176.595 14.5367 176.175 14.9187 175.616 15.6828C174.996 16.5071 174.686 17.1807 174.686 17.7034C174.686 18.4072 174.976 19.1209 175.556 19.8448C176.135 20.5686 176.785 20.9305 177.504 20.9305C178.284 20.9305 178.703 20.2469 178.763 18.8797Z" fill="url(#paint10_linear)"/>
<path d="M189.614 21.4733C189.114 21.9961 205.121 27.8067 205.141 28.2893C205.141 28.3295 205.101 28.3597 205.021 28.3798C203.782 28.038 202.973 27.8671 202.593 27.8671C201.834 27.8671 200.974 28.1083 200.015 28.5909C199.056 29.0734 198.546 29.3147 198.486 29.3147C198.306 29.3147 198.286 29.2644 198.426 29.1639C200.505 27.656 185.297 19.6638 185.297 15.8034C185.297 14.0743 184.928 12.8478 184.188 12.124C184.148 12.0838 184.148 12.0436 184.188 12.0034C185.127 11.0785 185.597 9.42978 185.597 7.05725C185.597 4.42335 185.247 3.1064 184.548 3.1064C184.288 3.1064 183.948 3.2974 183.529 3.67942C183.469 3.69953 183.419 3.66937 183.379 3.58894C183.718 2.02067 184.428 1.23653 185.507 1.23653C186.027 1.23653 186.446 1.27674 186.766 1.35716C187.106 1.41748 187.376 1.44764 187.575 1.44764C187.915 1.44764 188.395 1.136 189.014 0.512705C189.074 0.512705 189.124 0.532812 189.164 0.573025C189.144 1.09578 188.974 1.56828 188.655 1.99051C188.215 2.57358 187.925 3.03603 187.785 3.37783C187.486 4.16197 187.336 5.27786 187.336 6.7255C187.336 7.91176 187.366 8.68585 187.426 9.04776C187.585 10.2943 187.995 11.2293 188.655 11.8526C188.695 11.8928 188.695 11.933 188.655 11.9732C187.975 12.7171 187.635 13.9436 187.635 15.6526C187.635 16.4569 187.775 17.3315 188.055 18.2765C188.415 19.5432 188.934 20.5686 189.614 21.3527C189.654 21.3929 189.654 21.4331 189.614 21.4733Z" fill="url(#paint11_linear)"/>
<path d="M201.815 21.5035C200.935 22.2474 216.542 28.7216 216.143 30.31C215.863 31.5163 215.583 32.7227 215.303 33.9291C214.924 35.055 214.284 35.618 213.385 35.618C212.965 35.618 212.495 35.5577 211.976 35.437C211.456 35.3164 211.067 35.2561 210.807 35.2561C210.087 35.2561 209.288 35.4973 208.409 35.9799C208.329 36.0201 208.289 36 208.289 35.9196C208.109 35.2159 207.889 34.5725 207.629 33.9894C207.01 32.6021 206.22 31.647 205.261 31.1243C205.221 31.1042 205.201 31.074 205.201 31.0338C205.201 30.9936 205.221 30.9634 205.261 30.9433C205.701 30.6819 206.09 30.4004 206.43 30.0988C207.21 29.3951 207.649 28.6311 207.749 27.8067C207.749 27.7062 207.789 27.6761 207.869 27.7163C209.168 28.1385 210.417 28.3496 211.616 28.3496C211.956 28.3496 212.286 28.3295 212.605 28.2893C212.785 29.0533 212.875 29.5861 212.875 29.8877C212.875 30.2496 212.785 30.7322 212.605 31.3354C212.406 32.0391 212.176 32.3909 211.916 32.3909C211.596 32.3909 211.436 32.2904 211.436 32.0894C211.436 32.1095 211.486 31.9285 211.586 31.5465C211.706 31.1846 211.766 30.8528 211.766 30.5512C211.766 30.1692 211.706 29.9179 211.586 29.7973C211.386 29.5962 210.867 29.4957 210.027 29.4957C209.728 29.4957 209.498 29.5459 209.338 29.6465C209.298 29.6666 209.278 29.8777 209.278 30.2798C209.278 31.2047 209.568 32.0089 210.147 32.6925C210.627 33.2153 211.037 33.4767 211.376 33.4767C211.836 33.4767 212.316 33.0042 212.815 32.0592C213.535 30.692 197.668 23.3734 197.708 20.7194C197.488 21.0009 197.268 21.2723 197.048 21.5337C196.729 21.9358 212.635 27.4448 212.276 27.4448C212.056 27.4448 211.656 27.3242 211.077 27.0829C210.497 26.8215 193.871 21.3829 193.691 21.3829C193.251 21.3829 209.018 26.8819 208.499 27.2639C208.399 27.3443 208.349 27.3242 208.349 27.2036C208.489 26.2184 192.312 20.3776 192.312 20.2971C192.312 19.5733 191.992 18.7188 191.353 17.7336C190.773 16.8288 190.154 16.1452 189.494 15.6828C189.434 15.6627 189.434 15.6225 189.494 15.5621C190.873 13.9738 191.563 12.2245 191.563 10.3144C191.563 8.60542 191.333 7.75091 190.873 7.75091C190.513 7.75091 190.204 7.90171 189.944 8.2033C189.884 8.22341 189.834 8.19325 189.794 8.11282C190.094 6.80593 190.713 6.15248 191.652 6.15248C192.072 6.15248 192.472 6.19269 192.852 6.27311C193.251 6.35354 193.491 6.39375 193.571 6.39375C193.971 6.39375 194.44 6.12232 194.98 5.57945C195.04 5.57945 195.09 5.59956 195.13 5.63977C195.11 6.00168 194.94 6.47417 194.62 7.05725C194.201 7.80118 193.901 8.47473 193.721 9.07792C193.401 10.1435 193.241 11.4806 193.241 13.0891C193.241 14.6574 193.381 15.9743 193.661 17.0399C194.041 18.5278 194.65 19.2717 195.489 19.2717C196.009 19.2717 196.479 18.8596 196.898 18.0352C197.278 17.2712 197.468 16.487 197.468 15.6828C197.468 15.2404 197.108 14.4261 196.389 13.2399C195.669 12.0335 195.31 11.4303 195.31 11.4303C195.31 11.3097 195.4 11.179 195.579 11.0383C195.759 10.8975 195.909 10.8272 196.029 10.8272C196.309 10.8272 197.008 11.6616 198.127 13.3304V11.5811C198.127 10.4351 198.097 9.64089 198.037 9.19855C197.878 8.17314 197.518 7.66044 196.958 7.66044C196.639 7.66044 196.289 7.78107 195.909 8.02235C195.809 8.08266 195.759 8.06256 195.759 7.96203C195.739 7.66044 195.939 7.29853 196.359 6.8763C196.778 6.45407 197.208 6.24295 197.648 6.24295C197.928 6.24295 198.287 6.29322 198.727 6.39375C199.167 6.47417 199.456 6.51439 199.596 6.51439C200.136 6.51439 200.655 6.24295 201.155 5.70009C201.255 5.59956 201.305 5.61966 201.305 5.76041C201.325 6.32338 201.095 7.0472 200.615 7.93187C200.156 8.81654 199.926 9.96259 199.926 11.37C199.926 12.878 200.396 13.9838 201.335 14.6875C201.375 14.7277 201.385 14.768 201.365 14.8082C200.805 15.8135 200.526 16.869 200.526 17.9749C200.526 19.2014 200.955 20.3374 201.815 21.3829C201.855 21.4231 201.855 21.4633 201.815 21.5035Z" fill="url(#paint12_linear)"/>
<path d="M214.821 16.7082C214.201 17.2511 213.702 18.1357 213.322 19.3622C212.842 20.9305 228.789 27.1332 228.669 27.3544C228.209 28.1787 227.5 28.5909 226.541 28.5909C226.221 28.5909 225.691 28.5105 224.952 28.3496C224.233 28.2089 223.793 28.1385 223.633 28.1385C222.794 28.1385 221.894 28.3999 220.935 28.9226C220.875 28.9025 220.835 28.8523 220.815 28.7718C221.015 28.2089 221.115 27.7766 221.115 27.475C221.115 26.7914 204.589 20.7897 204.029 20.086C203.41 19.3019 202.62 18.7791 201.661 18.5177C201.541 18.4775 201.541 18.4172 201.661 18.3368C202.96 17.7738 203.609 16.7082 203.609 15.1399C203.609 14.1949 203.46 13.4309 203.16 12.8478C203.18 12.7674 203.22 12.7171 203.28 12.697C207.536 14.8685 209.665 16.3764 209.665 17.2209C209.665 17.5024 209.535 18.005 209.275 18.7289C209.015 19.4326 208.805 19.7844 208.645 19.7844C208.286 19.7844 208.106 19.6738 208.106 19.4527C208.106 19.4326 208.176 19.2215 208.316 18.8193C208.456 18.4172 208.526 18.0955 208.526 17.8542C208.526 17.5124 208.156 17.1304 207.416 16.7082C206.757 16.3463 206.327 16.1653 206.127 16.1653C205.948 16.1653 205.858 16.2055 205.858 16.286C205.858 17.1706 206.197 18.1357 206.877 19.1812C207.556 20.2268 208.196 20.7495 208.795 20.7495C209.015 20.7495 209.315 20.4278 209.695 19.7844C210.134 19.0204 210.354 18.1659 210.354 17.2209C210.354 16.6579 209.715 15.6124 208.436 14.0843C207.057 12.4356 205.908 11.6113 204.988 11.6113C204.729 11.6113 204.419 11.6314 204.059 11.6716C204.019 11.6716 203.989 11.6515 203.969 11.6113C203.949 11.5711 203.959 11.5409 203.999 11.5208C205.078 10.6965 205.618 9.93243 205.618 9.22871C205.618 8.38426 205.368 7.96203 204.868 7.96203C204.649 7.96203 204.339 8.05251 203.939 8.23346C203.859 8.21335 203.809 8.16309 203.789 8.08266C204.569 6.61492 205.568 5.88104 206.787 5.88104C207.207 5.88104 207.636 5.92126 208.076 6.00168C208.516 6.0821 208.815 6.12232 208.975 6.12232C209.635 6.12232 210.314 5.75035 211.014 5.00643C211.114 4.9059 211.164 4.926 211.164 5.06674C211.104 7.13768 211.823 8.51495 213.322 9.19855C213.462 9.23877 213.472 9.29908 213.352 9.37951C213.072 9.56046 212.792 9.79169 212.512 10.0732C211.813 10.7166 211.153 11.5007 210.534 12.4256C209.095 11.6414 208.376 11.1086 208.376 10.8272C208.576 10.3446 208.925 9.70121 209.425 8.89696C209.485 8.87686 209.535 8.90702 209.575 8.98744C209.475 9.38956 209.425 9.91232 209.425 10.5557C209.425 10.7367 209.565 10.8272 209.845 10.8272C209.924 10.8272 210.034 10.6764 210.174 10.3748C210.334 10.0531 210.414 9.82184 210.414 9.6811C210.414 9.17845 210.284 8.74617 210.024 8.38426C209.705 7.96203 209.275 7.75091 208.735 7.75091C207.976 7.75091 207.596 8.3541 207.596 9.56047C207.596 10.1636 207.896 10.8171 208.496 11.5208C208.795 11.8827 209.445 12.5261 210.444 13.451C211.503 14.4362 212.193 15.0494 212.512 15.2907C213.232 15.8537 213.991 16.2759 214.791 16.5574C214.891 16.5976 214.901 16.6479 214.821 16.7082Z" fill="url(#paint13_linear)"/>
<path d="M226.601 18.0352C225.822 18.6384 225.202 19.4024 224.743 20.3273C224.103 21.5739 240.02 27.5052 240 27.5052C239.62 28.0279 239.021 28.2893 238.201 28.2893C238.061 28.2893 237.572 28.2089 236.733 28.048C235.893 27.8872 235.364 27.8067 235.144 27.8067C234.444 27.8067 233.635 28.038 232.716 28.5004C232.656 28.4803 232.626 28.43 232.626 28.3496C233.105 27.8872 217.099 22.0564 217.099 21.4733C217.099 21.031 216.889 20.4178 216.469 19.6336C215.95 18.6685 215.36 18.0855 214.701 17.8844C214.581 17.8442 214.581 17.7839 214.701 17.7034C216.099 16.9595 216.799 15.5219 216.799 13.3907C216.799 12.1039 216.239 11.1086 215.12 10.4049C215.04 10.3446 215.05 10.2843 215.15 10.224C216.689 9.37951 217.458 8.16309 217.458 6.5747C217.458 5.73025 217.199 5.30802 216.679 5.30802C216.259 5.30802 215.89 5.52919 215.57 5.97152C215.51 5.97152 215.46 5.94136 215.42 5.88104C215.74 5.01648 216.349 4.36303 217.249 3.9207C217.988 3.57889 218.737 3.24714 219.497 2.92544C220.276 2.44289 220.736 1.69897 220.876 0.693662C220.896 0.633343 220.926 0.603183 220.966 0.603183C221.006 0.583077 221.036 0.603183 221.056 0.663501C221.155 1.02541 221.205 1.38732 221.205 1.74923C221.205 2.49316 220.936 3.42809 220.396 4.55404C219.876 5.67998 219.617 6.48423 219.617 6.96677C219.617 8.09272 220.216 8.65569 221.415 8.65569C222.994 8.65569 224.103 8.14298 224.743 7.11757C224.763 7.05725 224.803 7.0472 224.863 7.08741C224.923 7.10752 224.943 7.14773 224.923 7.20805C224.663 8.07261 223.913 9.15834 222.674 10.4652C221.515 11.7118 220.826 12.7976 220.606 13.7224C220.586 13.7828 220.556 13.8129 220.516 13.8129C220.476 13.7928 220.446 13.7526 220.426 13.6923C220.366 13.4108 220.396 12.9886 220.516 12.4256C220.656 11.7822 220.726 11.4303 220.726 11.37C220.726 10.9076 220.576 10.6764 220.276 10.6764C219.896 10.6764 219.567 10.9679 219.287 11.551C218.967 12.2145 218.807 13.0891 218.807 14.1748C218.807 15.4616 219.107 16.8188 219.707 18.2463C220.246 19.5532 220.686 20.2067 221.026 20.2067C221.285 20.2067 221.675 19.8246 222.195 19.0606C222.714 18.2966 222.974 17.6934 222.974 17.2511C222.974 16.4468 222.804 16.0447 222.464 16.0447C222.045 16.0447 221.745 16.1653 221.565 16.4066C221.485 16.5272 221.455 16.7987 221.475 17.2209C221.535 17.9045 221.565 18.1558 221.565 17.9749C221.565 18.2765 221.325 18.4273 220.846 18.4273C220.726 18.4273 220.606 18.0855 220.486 17.4019C220.366 16.6981 220.306 15.9643 220.306 15.2002C220.306 15.0394 220.516 14.8785 220.936 14.7177C221.355 14.5568 221.775 14.406 222.195 14.2653C222.634 14.1045 223.194 13.7828 223.873 13.3002C223.973 13.2399 224.023 13.26 224.023 13.3605C224.123 13.9235 224.273 14.4563 224.473 14.959C224.952 16.1854 225.662 17.1706 226.601 17.9146C226.621 17.9347 226.641 17.9548 226.661 17.9749C226.641 17.995 226.621 18.0151 226.601 18.0352Z" fill="url(#paint14_linear)"/>
</g>
<defs>
<filter id="filter0_di" x="-22" y="0" width="262" height="44" filterUnits="userSpaceOnUse" color-interpolation-filters="sRGB">
<feFlood flood-opacity="0" result="BackgroundImageFix"/>
<feColorMatrix in="SourceAlpha" type="matrix" values="0 0 0 0 0 0 0 0 0 0 0 0 0 0 0 0 0 0 127 0"/>
<feOffset dx="-28" dy="4"/>
<feGaussianBlur stdDeviation="2"/>
<feColorMatrix type="matrix" values="0 0 0 0 0 0 0 0 0 0 0 0 0 0 0 0 0 0 0.25 0"/>
<feBlend mode="normal" in2="BackgroundImageFix" result="effect1_dropShadow"/>
<feBlend mode="normal" in="SourceGraphic" in2="effect1_dropShadow" result="shape"/>
<feColorMatrix in="SourceAlpha" type="matrix" values="0 0 0 0 0 0 0 0 0 0 0 0 0 0 0 0 0 0 127 0" result="hardAlpha"/>
<feOffset dx="-1" dy="1"/>
<feComposite in2="hardAlpha" operator="arithmetic" k2="-1" k3="1"/>
<feColorMatrix type="matrix" values="0 0 0 0 0 0 0 0 0 0 0 0 0 0 0 0 0 0 0.5 0"/>
<feBlend mode="normal" in2="shape" result="effect2_innerShadow"/>
</filter>
<linearGradient id="paint0_linear" x1="123.32" y1="-0.331781" x2="123.32" y2="14.7478" gradientUnits="userSpaceOnUse">
<stop stop-color="#FFBA52"/>
<stop offset="1" stop-color="#FFD3AC"/>
</linearGradient>
<linearGradient id="paint1_linear" x1="123.32" y1="-0.331781" x2="123.32" y2="14.7478" gradientUnits="userSpaceOnUse">
<stop stop-color="#FFBA52"/>
<stop offset="1" stop-color="#FFD3AC"/>
</linearGradient>
<linearGradient id="paint2_linear" x1="123.32" y1="-0.331781" x2="123.32" y2="14.7478" gradientUnits="userSpaceOnUse">
<stop stop-color="#FFBA52"/>
<stop offset="1" stop-color="#FFD3AC"/>
</linearGradient>
<linearGradient id="paint3_linear" x1="123.32" y1="-0.331781" x2="123.32" y2="14.7478" gradientUnits="userSpaceOnUse">
<stop stop-color="#FFBA52"/>
<stop offset="1" stop-color="#FFD3AC"/>
</linearGradient>
<linearGradient id="paint4_linear" x1="123.32" y1="-0.331781" x2="123.32" y2="14.7478" gradientUnits="userSpaceOnUse">
<stop stop-color="#FFBA52"/>
<stop offset="1" stop-color="#FFD3AC"/>
</linearGradient>
<linearGradient id="paint5_linear" x1="123.32" y1="-0.331781" x2="123.32" y2="14.7478" gradientUnits="userSpaceOnUse">
<stop stop-color="#FFBA52"/>
<stop offset="1" stop-color="#FFD3AC"/>
</linearGradient>
<linearGradient id="paint6_linear" x1="123.32" y1="-0.331781" x2="123.32" y2="14.7478" gradientUnits="userSpaceOnUse">
<stop stop-color="#FFBA52"/>
<stop offset="1" stop-color="#FFD3AC"/>
</linearGradient>
<linearGradient id="paint7_linear" x1="123.32" y1="-0.331781" x2="123.32" y2="14.7478" gradientUnits="userSpaceOnUse">
<stop stop-color="#FFBA52"/>
<stop offset="1" stop-color="#FFD3AC"/>
</linearGradient>
<linearGradient id="paint8_linear" x1="123.32" y1="-0.331781" x2="123.32" y2="14.7478" gradientUnits="userSpaceOnUse">
<stop stop-color="#FFBA52"/>
<stop offset="1" stop-color="#FFD3AC"/>
</linearGradient>
<linearGradient id="paint9_linear" x1="123.32" y1="-0.331781" x2="123.32" y2="14.7478" gradientUnits="userSpaceOnUse">
<stop stop-color="#FFBA52"/>
<stop offset="1" stop-color="#FFD3AC"/>
</linearGradient>
<linearGradient id="paint10_linear" x1="123.32" y1="-0.331781" x2="123.32" y2="14.7478" gradientUnits="userSpaceOnUse">
<stop stop-color="#FFBA52"/>
<stop offset="1" stop-color="#FFD3AC"/>
</linearGradient>
<linearGradient id="paint11_linear" x1="123.32" y1="-0.331781" x2="123.32" y2="14.7478" gradientUnits="userSpaceOnUse">
<stop stop-color="#FFBA52"/>
<stop offset="1" stop-color="#FFD3AC"/>
</linearGradient>
<linearGradient id="paint12_linear" x1="123.32" y1="-0.331781" x2="123.32" y2="14.7478" gradientUnits="userSpaceOnUse">
<stop stop-color="#FFBA52"/>
<stop offset="1" stop-color="#FFD3AC"/>
</linearGradient>
<linearGradient id="paint13_linear" x1="123.32" y1="-0.331781" x2="123.32" y2="14.7478" gradientUnits="userSpaceOnUse">
<stop stop-color="#FFBA52"/>
<stop offset="1" stop-color="#FFD3AC"/>
</linearGradient>
<linearGradient id="paint14_linear" x1="123.32" y1="-0.331781" x2="123.32" y2="14.7478" gradientUnits="userSpaceOnUse">
<stop stop-color="#FFBA52"/>
<stop offset="1" stop-color="#FFD3AC"/>
</linearGradient>
</defs>
</svg>
